<svg xmlns="http://www.w3.org/2000/svg" xmlns:xlink="http://www.w3.org/1999/xlink" contentStyleType="text/css" data-diagram-type="DESCRIPTION" height="303px" preserveAspectRatio="none" style="width:1178px;height:303px;background:#FAFBFC;" version="1.1" viewBox="0 0 1178 303" width="1178px" zoomAndPan="magnify"><title>Identity Map &#8212; Freezing hk_durable on first assignment</title><defs/><g><rect fill="#FAFBFC" height="303" style="stroke:none;stroke-width:1;" width="1178" x="0" y="0"/><g class="title" data-source-line="2"><text fill="#000000" font-family="sans-serif" font-size="14" font-weight="bold" lengthAdjust="spacing" textLength="392.7686" x="384.6157" y="24.9659">Identity Map &#8212; Freezing hk_durable on first assignment</text></g><!--cluster L1--><g class="cluster" data-entity="L1" data-source-line="19" data-uid="ent0002" id="cluster_L1"><path d="M39.5,44.0679 L330.0491,44.0679 A3.75,3.75 0 0 1 332.5491,46.5679 L339.5491,67.7739 L850.5,67.7739 A2.5,2.5 0 0 1 853,70.2739 L853,147.5679 A2.5,2.5 0 0 1 850.5,150.0679 L39.5,150.0679 A2.5,2.5 0 0 1 37,147.5679 L37,46.5679 A2.5,2.5 0 0 1 39.5,44.0679" fill="#EDF0F4" style="stroke:#4A5568;stroke-width:1.5;"/><line style="stroke:#4A5568;stroke-width:1.5;" x1="37" x2="339.5491" y1="67.7739" y2="67.7739"/><text fill="#000000" font-family="sans-serif" font-size="13" font-weight="bold" lengthAdjust="spacing" textLength="289.5491" x="41" y="59.9649">Load 1: Initial Cluster Formation (2024-02-15)</text></g><!--cluster L2--><g class="cluster" data-entity="L2" data-source-line="28" data-uid="ent0008" id="cluster_L2"><path d="M16.5,158.0679 L277.2532,158.0679 A3.75,3.75 0 0 1 279.7532,160.5679 L286.7532,181.7739 L840.5,181.7739 A2.5,2.5 0 0 1 843,184.2739 L843,293.5679 A2.5,2.5 0 0 1 840.5,296.0679 L16.5,296.0679 A2.5,2.5 0 0 1 14,293.5679 L14,160.5679 A2.5,2.5 0 0 1 16.5,158.0679" fill="#EDF0F4" style="stroke:#4A5568;stroke-width:1.5;"/><line style="stroke:#4A5568;stroke-width:1.5;" x1="14" x2="286.7532" y1="181.7739" y2="181.7739"/><text fill="#000000" font-family="sans-serif" font-size="13" font-weight="bold" lengthAdjust="spacing" textLength="259.7532" x="18" y="173.9649">Load 2: Master Flips to K100 (2024-03-15)</text></g><!--cluster SCD2--><g class="cluster" data-entity="SCD2" data-source-line="37" data-uid="ent0014" id="cluster_SCD2"><path d="M955.5,88.0679 L1146.5341,88.0679 A3.75,3.75 0 0 1 1149.0341,90.5679 L1156.0341,111.7739 L1168.5,111.7739 A2.5,2.5 0 0 1 1171,114.2739 L1171,207.5679 A2.5,2.5 0 0 1 1168.5,210.0679 L955.5,210.0679 A2.5,2.5 0 0 1 953,207.5679 L953,90.5679 A2.5,2.5 0 0 1 955.5,88.0679" fill="#F3EBFB" style="stroke:#4A5568;stroke-width:1.5;"/><line style="stroke:#4A5568;stroke-width:1.5;" x1="953" x2="1156.0341" y1="111.7739" y2="111.7739"/><text fill="#000000" font-family="sans-serif" font-size="13" font-weight="bold" lengthAdjust="spacing" textLength="190.0341" x="957" y="103.9649">Business Vault SCD2 Timeline</text></g><!--entity L1_SameAs--><g class="entity" data-entity="L1_SameAs" data-source-line="20" data-uid="ent0003" id="entity_L1_SameAs"><rect fill="#E8F0FB" height="69.0323" rx="2.5" ry="2.5" style="stroke:#181818;stroke-width:1;" width="107.6966" x="45" y="72.5679"/><text fill="#000000" font-family="sans-serif" font-size="12" lengthAdjust="spacing" textLength="74.9165" x="55" y="95.396">Same-As Link</text><text fill="#000000" font-family="sans-serif" font-size="12" lengthAdjust="spacing" textLength="75.7205" x="55" y="111.7401">Master: O100</text><text fill="#000000" font-family="sans-serif" font-size="12" lengthAdjust="spacing" textLength="87.6966" x="55" y="128.0842">Duplicate: K100</text></g><!--entity L1_Logic--><g class="entity" data-entity="L1_Logic" data-source-line="21" data-uid="ent0004" id="entity_L1_Logic"><rect fill="#FFF6E8" height="69.0323" rx="2.5" ry="2.5" style="stroke:#181818;stroke-width:1;" width="194.0372" x="213" y="72.5679"/><text fill="#000000" font-family="sans-serif" font-size="12" lengthAdjust="spacing" textLength="135.349" x="223" y="95.396">IdentityMapAssignLogic</text><text fill="#000000" font-family="sans-serif" font-size="12" lengthAdjust="spacing" textLength="174.0372" x="223" y="111.7401">Mint hk_durable = HASH(O100)</text><text fill="#000000" font-family="sans-serif" font-size="12" lengthAdjust="spacing" textLength="88.8726" x="223" y="128.0842">rule_version = 1</text></g><!--entity L1_Map--><g class="entity" data-entity="L1_Map" data-source-line="22" data-uid="ent0005" id="entity_L1_Map"><rect fill="#E8F0FB" height="69.0323" rx="2.5" ry="2.5" style="stroke:#181818;stroke-width:1;" width="229.3774" x="616" y="72.5679"/><text fill="#000000" font-family="sans-serif" font-size="12" lengthAdjust="spacing" textLength="103.9567" x="626" y="95.396">map_person Table</text><text fill="#000000" font-family="sans-serif" font-size="12" lengthAdjust="spacing" textLength="209.3774" x="626" y="111.7401">O100 &#10132; hk_durable: HASH(O100) (v1)</text><text fill="#000000" font-family="sans-serif" font-size="12" lengthAdjust="spacing" textLength="207.4334" x="626" y="128.0842">K100 &#10132; hk_durable: HASH(O100) (v1)</text></g><!--entity L2_SameAs--><g class="entity" data-entity="L2_SameAs" data-source-line="29" data-uid="ent0009" id="entity_L2_SameAs"><rect fill="#FFF6E8" height="69.0323" rx="2.5" ry="2.5" style="stroke:#181818;stroke-width:1;" width="153.8609" x="22" y="202.5679"/><text fill="#000000" font-family="sans-serif" font-size="12" lengthAdjust="spacing" textLength="74.9165" x="32" y="225.396">Same-As Link</text><text fill="#000000" font-family="sans-serif" font-size="12" lengthAdjust="spacing" textLength="133.8609" x="32" y="241.7401">Master: K100 (FLIPPED!)</text><text fill="#000000" font-family="sans-serif" font-size="12" lengthAdjust="spacing" textLength="89.6406" x="32" y="258.0842">Duplicate: O100</text></g><!--entity L2_Logic--><g class="entity" data-entity="L2_Logic" data-source-line="30" data-uid="ent0010" id="entity_L2_Logic"><rect fill="#F3EBFB" height="101.7206" rx="2.5" ry="2.5" style="stroke:#181818;stroke-width:1;" width="169.197" x="225.5" y="186.0679"/><text fill="#000000" font-family="sans-serif" font-size="12" lengthAdjust="spacing" textLength="135.349" x="235.5" y="208.896">IdentityMapAssignLogic</text><text fill="#000000" font-family="sans-serif" font-size="12" lengthAdjust="spacing" textLength="125.6529" x="235.5" y="225.2401">Check existing cluster:</text><text fill="#000000" font-family="sans-serif" font-size="12" lengthAdjust="spacing" textLength="146.173" x="235.5" y="241.5842">hk_durable already exists!</text><text fill="#000000" font-family="sans-serif" font-size="12" lengthAdjust="spacing" textLength="149.197" x="235.5" y="257.9283">KEEP FROZEN HASH(O100)</text><text fill="#000000" font-family="sans-serif" font-size="12" lengthAdjust="spacing" textLength="88.8726" x="235.5" y="274.2725">rule_version = 2</text></g><!--entity L2_Map--><g class="entity" data-entity="L2_Map" data-source-line="31" data-uid="ent0011" id="entity_L2_Map"><rect fill="#E7F6ED" height="85.3765" rx="2.5" ry="2.5" style="stroke:#181818;stroke-width:1;" width="209.0013" x="626" y="188.5679"/><text fill="#000000" font-family="sans-serif" font-size="12" lengthAdjust="spacing" textLength="103.9567" x="636" y="211.396">map_person Table</text><text fill="#000000" font-family="sans-serif" font-size="12" lengthAdjust="spacing" textLength="189.0013" x="636" y="227.7401">O100 &#10132; FROZEN HASH(O100) (v2)</text><text fill="#000000" font-family="sans-serif" font-size="12" lengthAdjust="spacing" textLength="187.0573" x="636" y="244.0842">K100 &#10132; FROZEN HASH(O100) (v2)</text><text fill="#000000" font-family="sans-serif" font-size="12" lengthAdjust="spacing" textLength="123.6849" x="636" y="260.4283">preferred_bk updated</text></g><!--entity SCD2_Target--><g class="entity" data-entity="SCD2_Target" data-source-line="38" data-uid="ent0015" id="entity_SCD2_Target"><rect fill="#E7F6ED" height="85.3765" rx="2.5" ry="2.5" style="stroke:#181818;stroke-width:1;" width="202.2933" x="961" y="116.5679"/><text fill="#000000" font-family="sans-serif" font-size="12" lengthAdjust="spacing" textLength="82.0926" x="971" y="139.396">bv_person_bvr</text><text fill="#000000" font-family="sans-serif" font-size="12" lengthAdjust="spacing" textLength="182.2933" x="971" y="155.7401">Consolidated grain: HASH(O100)</text><text fill="#000000" font-family="sans-serif" font-size="12" lengthAdjust="spacing" textLength="129.4929" x="971" y="172.0842">No historical key churn</text><text fill="#000000" font-family="sans-serif" font-size="12" lengthAdjust="spacing" textLength="175.1893" x="971" y="188.4283">Downstream marts stay stable!</text></g><g class="link" data-entity-1="L1_SameAs" data-entity-2="L1_Logic" data-uid="lnk6" id="link_L1_SameAs_L1_Logic"><polygon fill="#5A6A7E" points="212.9451,107.0679,203.9451,103.0679,207.9451,107.0679,203.9451,111.0679,212.9451,107.0679" style="stroke:#5A6A7E;stroke-width:1;"/><path d="M153.0097,107.0679 C171.2708,107.0679 186.3286,107.0679 206.9451,107.0679" fill="none" style="stroke:#5A6A7E;stroke-width:1;"/></g><g class="link" data-entity-1="L1_Logic" data-entity-2="L1_Map" data-uid="lnk7" id="link_L1_Logic_L1_Map"><polygon fill="#5A6A7E" points="615.7336,107.0679,606.7336,103.0679,610.7336,107.0679,606.7336,111.0679,615.7336,107.0679" style="stroke:#5A6A7E;stroke-width:1;"/><path d="M407.0124,107.0679 C469.1521,107.0679 544.3575,107.0679 609.7336,107.0679" fill="none" style="stroke:#5A6A7E;stroke-width:1;"/><text fill="#000000" font-family="sans-serif" font-size="13" lengthAdjust="spacing" textLength="103.7011" x="460" y="101.9649">Insert initial map</text></g><g class="link" data-entity-1="L2_SameAs" data-entity-2="L2_Logic" data-uid="lnk12" id="link_L2_SameAs_L2_Logic"><polygon fill="#5A6A7E" points="225.2418,237.0679,216.2418,233.0679,220.2418,237.0679,216.2418,241.0679,225.2418,237.0679" style="stroke:#5A6A7E;stroke-width:1;"/><path d="M176.045,237.0679 C192.035,237.0679 202.9872,237.0679 219.2418,237.0679" fill="none" style="stroke:#5A6A7E;stroke-width:1;"/></g><g class="link" data-entity-1="L2_Logic" data-entity-2="L2_Map" data-uid="lnk13" id="link_L2_Logic_L2_Map"><polygon fill="#5A6A7E" points="625.9393,232.5527,616.8829,228.6821,620.9398,232.6243,616.9976,236.6813,625.9393,232.5527" style="stroke:#5A6A7E;stroke-width:1;"/><path d="M394.6839,235.8681 C461.2346,234.914 548.6763,233.6604 619.9399,232.6387" fill="none" style="stroke:#5A6A7E;stroke-width:1;"/><text fill="#000000" font-family="sans-serif" font-size="13" lengthAdjust="spacing" textLength="152.3211" x="435.7555" y="208.9649">Update master &amp; version</text><text fill="#000000" font-family="sans-serif" font-size="13" lengthAdjust="spacing" textLength="169.8322" x="427" y="226.6709">(hk_durable NOT rewritten!)</text></g><g class="link" data-entity-1="L1_Map" data-entity-2="SCD2_Target" data-uid="lnk16" id="link_L1_Map_SCD2_Target"><polygon fill="#5A6A7E" points="960.8934,143.2696,952.6269,137.9155,955.9545,142.4902,951.3798,145.8177,960.8934,143.2696" style="stroke:#5A6A7E;stroke-width:1;"/><path d="M845.3566,125.0362 C882.932,130.9661 918.4973,136.5789 954.9667,142.3343" fill="none" style="stroke:#5A6A7E;stroke-width:1;"/><text fill="#000000" font-family="sans-serif" font-size="13" lengthAdjust="spacing" textLength="76.4921" x="865" y="122.9649">As-of lookup</text></g><g class="link" data-entity-1="L2_Map" data-entity-2="SCD2_Target" data-uid="lnk17" id="link_L2_Map_SCD2_Target"><polygon fill="#5A6A7E" points="960.815,180.9596,951.1686,178.9731,955.9303,182.027,952.8764,186.7887,960.815,180.9596" style="stroke:#5A6A7E;stroke-width:1;"/><path d="M835.3036,208.3855 C875.3893,199.6263 915.2169,190.9234 954.9533,182.2405" fill="none" style="stroke:#5A6A7E;stroke-width:1;"/><text fill="#000000" font-family="sans-serif" font-size="13" lengthAdjust="spacing" textLength="76.4921" x="865" y="180.9649">As-of lookup</text></g><!--SRC=[bLJRRjf047ttLmo9LC434ZWXYP1IYN1HeXA82kr3XOGMUsnMjdUjtJMKL9Nw4Ndkn-LBEciCcAI9MeIGMS_CENFEiIkfOc7286ORcHdG2Hecc6EuYH7kV1HqjO5xbiBphoSOACH7Ba9OHdC_Ksn1HL90m9KsmBJceKYenT4H5obJB845yw9GoKpuNHbB1QS12nQ1LwhmCM1PR0PIc15B42PCw0ag7fHgz9BvScs10nPhBDtfA2NNnUWMks2NvPiAFTec998_702BCE6F24sN_jr8vQEQBhaN2TGQcixFKcTAj5duikzitrSWdhDMw-BAdhvQC__GJ2V6m82He7YuDE1pIufBuJWxZ9EXP3uqst0dkE4iXcwSQOEAW5N2R2rKtOPxNc-uzMQhTa92mx09f-W7ZU0yftXOz6H26jOxLC55D1Ftp4vgmxZPQCn4BqjZxZ63RVX41yMakMsXZbEyee6But6x2502Ehc_GnboZmPpOSefk8RRpkIsQd5gCw6o6EShLDgIluRc3YblpiMvmAjZe8IbyvGwg65g9yw4dGNFlvzACEqI2bHNJOBwz0zLEtWRuyEMz3qiNwz_t1FStjXoBSvjfpL8epB02v-8iZNus4Ut3LlHOH3pL5ldSug5XMS72zt_it0xPJ2yUtZezogr8pV7UpVTlPj_4_ajDxjBz2B0xrmR-v1vsm2sPwBaC8iLCd-phT8LKhxVVu31v_6t_kWzyzqTiPtvPxXucR9tp7y5G8wwPT_VAaWL1gWK-lD515dgar3-Zies29SaaEzOjzsZ6BY76BZb6BX53BxamyZ-tEOFKEmw4zMINAFnb3PSAsuCYahjA2WtcURvI-UhVVF1fDjpOSeJZEaqfvYV54gzJCTYLKWrNwmKMIU5bZ7FruDGCIxQHswC92p9CAaeAZ54k05lcIaYsvDheGrvcj0cocZGXcti3x6lx5dCfqo5QFPgqHh5us0bALUqeQFhCe1OoYXBdKAjzwl-0000]--></g></svg>