<svg xmlns="http://www.w3.org/2000/svg" xmlns:xlink="http://www.w3.org/1999/xlink" contentStyleType="text/css" data-diagram-type="DESCRIPTION" height="183px" preserveAspectRatio="none" style="width:575px;height:183px;background:#FAFBFC;" version="1.1" viewBox="0 0 575 183" width="575px" zoomAndPan="magnify"><title>Business Vault and raw Data Vault</title><defs/><g><rect fill="#FAFBFC" height="183" style="stroke:none;stroke-width:1;" width="575" x="0" y="0"/><g class="title" data-source-line="2"><text fill="#000000" font-family="sans-serif" font-size="14" font-weight="bold" lengthAdjust="spacing" textLength="240.2811" x="158.3595" y="24.9659">Business Vault and raw Data Vault</text></g><!--entity Hdv--><g class="entity" data-entity="Hdv" data-source-line="14" data-uid="ent0002" id="entity_Hdv"><rect fill="#E8F0FB" height="37.706" rx="2.5" ry="2.5" style="stroke:#181818;stroke-width:2;" width="154.9011" x="6" y="81.0679"/><text fill="#000000" font-family="sans-serif" font-size="13" lengthAdjust="spacing" textLength="134.9011" x="16" y="104.9649">.hdv Data Vault model</text></g><!--entity VaultDB--><g class="entity" data-entity="VaultDB" data-source-line="15" data-uid="ent0003" id="entity_VaultDB"><path d="M426.5,62.0679 C426.5,52.0679 485.3248,52.0679 485.3248,52.0679 C485.3248,52.0679 544.1496,52.0679 544.1496,62.0679 L544.1496,90.1358 C544.1496,100.1358 485.3248,100.1358 485.3248,100.1358 C485.3248,100.1358 426.5,100.1358 426.5,90.1358 L426.5,62.0679" fill="#E8F0FB" style="stroke:#181818;stroke-width:0.5;"/><path d="M426.5,62.0679 C426.5,72.0679 485.3248,72.0679 485.3248,72.0679 C485.3248,72.0679 544.1496,72.0679 544.1496,62.0679" fill="none" style="stroke:#181818;stroke-width:0.5;"/><text fill="#000000" font-family="sans-serif" font-size="14" lengthAdjust="spacing" textLength="97.6496" x="436.5" y="91.0339">Vault database</text></g><!--entity Hbv--><g class="entity" data-entity="Hbv" data-source-line="16" data-uid="ent0004" id="entity_Hbv"><rect fill="#F3EBFB" height="37.706" rx="2.5" ry="2.5" style="stroke:#181818;stroke-width:2;" width="180.0172" x="197" y="104.0679"/><text fill="#000000" font-family="sans-serif" font-size="13" lengthAdjust="spacing" textLength="160.0172" x="207" y="127.9649">.hbv Business Vault model</text></g><!--entity BvDB--><g class="entity" data-entity="BvDB" data-source-line="17" data-uid="ent0005" id="entity_BvDB"><path d="M413,128.0679 C413,118.0679 485.7338,118.0679 485.7338,118.0679 C485.7338,118.0679 558.4675,118.0679 558.4675,128.0679 L558.4675,156.1358 C558.4675,166.1358 485.7338,166.1358 485.7338,166.1358 C485.7338,166.1358 413,166.1358 413,156.1358 L413,128.0679" fill="#F3EBFB" style="stroke:#181818;stroke-width:0.5;"/><path d="M413,128.0679 C413,138.0679 485.7338,138.0679 485.7338,138.0679 C485.7338,138.0679 558.4675,138.0679 558.4675,128.0679" fill="none" style="stroke:#181818;stroke-width:0.5;"/><text fill="#000000" font-family="sans-serif" font-size="14" lengthAdjust="spacing" textLength="125.4675" x="423" y="157.0339">BV target database</text></g><g class="link" data-entity-1="Hdv" data-entity-2="VaultDB" data-uid="lnk6" id="link_Hdv_VaultDB"><polygon fill="#5A6A7E" points="426.2739,79.5615,417.0505,76.1077,421.2829,79.8609,417.5296,84.0933,426.2739,79.5615" style="stroke:#5A6A7E;stroke-width:1;"/><path d="M161.1507,95.4689 C238.5063,90.8275 350.2628,84.1221 420.2847,79.9208" fill="none" style="stroke:#5A6A7E;stroke-width:1;"/></g><g class="link" data-entity-1="Hdv" data-entity-2="Hbv" data-uid="lnk7" id="link_Hdv_Hbv"><polygon fill="#5A6A7E" points="196.9788,112.9067,188.4905,107.9118,192.011,112.3396,187.5832,115.8602,196.9788,112.9067" style="stroke:#5A6A7E;stroke-width:1;"/><path d="M161.2533,108.8288 C172.9313,110.1618 179.1046,110.8665 191.0175,112.2262" fill="none" style="stroke:#5A6A7E;stroke-width:1;"/></g><g class="link" data-entity-1="Hbv" data-entity-2="VaultDB" data-uid="lnk8" id="link_Hbv_VaultDB"><polygon fill="#5A6A7E" points="426.4701,89.9478,416.7865,88.1512,421.6073,91.111,418.6475,95.9317,426.4701,89.9478" style="stroke:#5A6A7E;stroke-width:1;"/><path d="M367.6408,104.019 C387.3221,99.3115 402.2021,95.7524 420.6347,91.3436" fill="none" style="stroke:#5A6A7E;stroke-width:1;"/></g><g class="link" data-entity-1="Hbv" data-entity-2="BvDB" data-uid="lnk9" id="link_Hbv_BvDB"><polygon fill="#5A6A7E" points="412.8292,135.1379,404.256,130.2903,407.8525,134.6567,403.4861,138.2532,412.8292,135.1379" style="stroke:#5A6A7E;stroke-width:1;"/><path d="M377.0511,131.6785 C389.0335,132.8371 395.2278,133.436 406.8571,134.5605" fill="none" style="stroke:#5A6A7E;stroke-width:1;"/></g><!--SRC=[NP3DJiCm48JlVegbEHS15Jyd94A5E749wdqJhnChZbsjdKI0U7ViD2rfZxFpUMRNLtl6kaCm-ENw0BwZW1P5qC4GvBtNbho77VOc05e9Z2DiCU1X97ohxHuPEoYnQcjslPMlpZY6JA4gLRKW9AdqvitPy84TGO7M5yHQBHZVe7IZjZKeD9uMpWkp6-VeUtp0nwN9LCMrwxZoZm183ON-9hZTH9KxbiIVZQxQwPOxyIk48HKWE61TDm6aJW7QMI7-arRNZHmMjqBd99aLe8VtQ6Jqf6vKAMG4IlIHFr17FO7JQ9kVuBFqShZyu4L3D3EreVAi8Tz1GAxfeYKVKiLCYxJSUlryx3xf62bIx9atwvJm1m00]--></g></svg>