<svg xmlns="http://www.w3.org/2000/svg" xmlns:xlink="http://www.w3.org/1999/xlink" contentStyleType="text/css" data-diagram-type="DESCRIPTION" height="180px" preserveAspectRatio="none" style="width:1137px;height:180px;background:#FAFBFC;" version="1.1" viewBox="0 0 1137 180" width="1137px" zoomAndPan="magnify"><title>D1 &#8212; Logical layers</title><defs/><g><rect fill="#FAFBFC" height="180" style="stroke:none;stroke-width:1;" width="1137" x="0" y="0"/><g class="title" data-source-line="2"><text fill="#000000" font-family="sans-serif" font-size="14" font-weight="bold" lengthAdjust="spacing" textLength="135.1975" x="491.9013" y="24.9659">D1 &#8212; Logical layers</text></g><!--entity Landing--><g class="entity" data-entity="Landing" data-source-line="14" data-uid="ent0002" id="entity_Landing"><rect fill="#FFF6E8" height="55.412" rx="2.5" ry="2.5" style="stroke:#181818;stroke-width:2;" width="124.0391" x="6" y="98.2569"/><text fill="#000000" font-family="sans-serif" font-size="13" lengthAdjust="spacing" textLength="49.5171" x="16" y="122.1539">Landing</text><text fill="#000000" font-family="sans-serif" font-size="13" lengthAdjust="spacing" textLength="104.0391" x="16" y="139.8599">CRM &#183; files &#183; JSON</text></g><!--entity Hsm--><g class="entity" data-entity="Hsm" data-source-line="15" data-uid="ent0003" id="entity_Hsm"><rect fill="#FFF6E8" height="55.412" rx="2.5" ry="2.5" style="stroke:#181818;stroke-width:2;" width="104.0581" x="167" y="98.2569"/><text fill="#000000" font-family="sans-serif" font-size="13" lengthAdjust="spacing" textLength="84.0581" x="177" y="122.1539">Source model</text><text fill="#000000" font-family="sans-serif" font-size="13" lengthAdjust="spacing" textLength="29.9" x="177" y="139.8599">.hsm</text></g><!--entity Catalog--><g class="entity" data-entity="Catalog" data-source-line="16" data-uid="ent0004" id="entity_Catalog"><rect fill="#EDF0F4" height="55.412" rx="2.5" ry="2.5" style="stroke:#181818;stroke-width:2;" width="153.5881" x="405" y="98.2569"/><text fill="#000000" font-family="sans-serif" font-size="13" lengthAdjust="spacing" textLength="97.3831" x="415" y="122.1539">Catalog sources</text><text fill="#000000" font-family="sans-serif" font-size="13" lengthAdjust="spacing" textLength="133.5881" x="415" y="139.8599">hop/{project}/sources</text></g><!--entity Hdv--><g class="entity" data-entity="Hdv" data-source-line="17" data-uid="ent0005" id="entity_Hdv"><rect fill="#E8F0FB" height="55.412" rx="2.5" ry="2.5" style="stroke:#181818;stroke-width:2;" width="112.3001" x="596" y="98.2569"/><text fill="#000000" font-family="sans-serif" font-size="13" lengthAdjust="spacing" textLength="92.3001" x="606" y="122.1539">Raw Data Vault</text><text fill="#000000" font-family="sans-serif" font-size="13" lengthAdjust="spacing" textLength="26.117" x="606" y="139.8599">.hdv</text></g><!--entity Hbv--><g class="entity" data-entity="Hbv" data-source-line="18" data-uid="ent0006" id="entity_Hbv"><rect fill="#F3EBFB" height="55.412" rx="2.5" ry="2.5" style="stroke:#181818;stroke-width:2;" width="108.4391" x="745" y="42.2569"/><text fill="#000000" font-family="sans-serif" font-size="13" lengthAdjust="spacing" textLength="88.4391" x="755" y="66.1539">Business Vault</text><text fill="#000000" font-family="sans-serif" font-size="13" lengthAdjust="spacing" textLength="26.117" x="755" y="83.8599">.hbv</text></g><!--entity Hdm--><g class="entity" data-entity="Hdm" data-source-line="19" data-uid="ent0007" id="entity_Hdm"><rect fill="#E7F6ED" height="55.412" rx="2.5" ry="2.5" style="stroke:#181818;stroke-width:2;" width="96.4921" x="890" y="89.2569"/><text fill="#000000" font-family="sans-serif" font-size="13" lengthAdjust="spacing" textLength="76.4921" x="900" y="113.1539">Dimensional</text><text fill="#000000" font-family="sans-serif" font-size="13" lengthAdjust="spacing" textLength="31.668" x="900" y="130.8599">.hdm</text></g><!--entity Vault--><g class="entity" data-entity="Vault" data-source-line="20" data-uid="ent0008" id="entity_Vault"><path d="M1023,102.7569 C1023,92.7569 1071.5418,92.7569 1071.5418,92.7569 C1071.5418,92.7569 1120.0837,92.7569 1120.0837,102.7569 L1120.0837,130.8248 C1120.0837,140.8248 1071.5418,140.8248 1071.5418,140.8248 C1071.5418,140.8248 1023,140.8248 1023,130.8248 L1023,102.7569" fill="#E8F0FB" style="stroke:#181818;stroke-width:0.5;"/><path d="M1023,102.7569 C1023,112.7569 1071.5418,112.7569 1071.5418,112.7569 C1071.5418,112.7569 1120.0837,112.7569 1120.0837,102.7569" fill="none" style="stroke:#181818;stroke-width:0.5;"/><text fill="#000000" font-family="sans-serif" font-size="14" lengthAdjust="spacing" textLength="77.0837" x="1033" y="131.7228">Vault / EDW</text></g><g class="link" data-entity-1="Landing" data-entity-2="Hsm" data-uid="lnk9" id="link_Landing_Hsm"><polygon fill="#5A6A7E" points="166.8074,125.7569,157.8074,121.7569,161.8074,125.7569,157.8074,129.7569,166.8074,125.7569" style="stroke:#5A6A7E;stroke-width:1;"/><path d="M130.0339,125.7569 C142.2498,125.7569 148.9654,125.7569 160.8074,125.7569" fill="none" style="stroke:#5A6A7E;stroke-width:1;"/></g><g class="link" data-entity-1="Hsm" data-entity-2="Catalog" data-uid="lnk10" id="link_Hsm_Catalog"><polygon fill="#5A6A7E" points="404.8822,125.7569,395.8822,121.7569,399.8822,125.7569,395.8822,129.7569,404.8822,125.7569" style="stroke:#5A6A7E;stroke-width:1;"/><path d="M271.2538,125.7569 C309.3331,125.7569 355.9003,125.7569 398.8822,125.7569" fill="none" style="stroke:#5A6A7E;stroke-width:1;"/><text fill="#000000" font-family="sans-serif" font-size="13" lengthAdjust="spacing" textLength="94.2111" x="291" y="120.6539">Push to catalog</text></g><g class="link" data-entity-1="Catalog" data-entity-2="Hdv" data-uid="lnk11" id="link_Catalog_Hdv"><polygon fill="#5A6A7E" points="595.7287,125.7569,586.7287,121.7569,590.7287,125.7569,586.7287,129.7569,595.7287,125.7569" style="stroke:#5A6A7E;stroke-width:1;"/><path d="M559.1353,125.7569 C571.4634,125.7569 578.0194,125.7569 589.7287,125.7569" fill="none" style="stroke:#5A6A7E;stroke-width:1;"/></g><g class="link" data-entity-1="Hdv" data-entity-2="Vault" data-uid="lnk12" id="link_Hdv_Vault"><polygon fill="#5A6A7E" points="1024.7123,140.8794,1014.8639,140.788,1020.1246,142.8676,1018.045,148.1283,1024.7123,140.8794" style="stroke:#5A6A7E;stroke-width:1;"/><path d="M708.1022,140.0218 C774.6329,155.043 889.6065,173.9359 986,153.7569 C999.0103,151.0333 1006.9615,148.5723 1019.2071,143.2653" fill="none" style="stroke:#5A6A7E;stroke-width:1;"/></g><g class="link" data-entity-1="Hdv" data-entity-2="Hbv" data-uid="lnk13" id="link_Hdv_Hbv"><polygon fill="#5A6A7E" points="744.8355,90.2894,734.9988,89.8004,740.1713,92.0907,737.881,97.2632,744.8355,90.2894" style="stroke:#5A6A7E;stroke-width:1;"/><path d="M708.2319,104.4259 C720.2369,99.7895 727.3155,97.0557 739.2384,92.451" fill="none" style="stroke:#5A6A7E;stroke-width:1;"/></g><g class="link" data-entity-1="Hbv" data-entity-2="Vault" data-uid="lnk14" id="link_Hbv_Vault"><polygon fill="#5A6A7E" points="1022.7611,93.0605,1015.9867,85.9116,1018.1443,91.1408,1012.9151,93.2984,1022.7611,93.0605" style="stroke:#5A6A7E;stroke-width:1;"/><path d="M853.2086,68.1013 C890.7879,68.0908 942.0721,70.4293 986,80.7569 C998.263,83.6399 1005.4642,85.8682 1017.2209,90.7568" fill="none" style="stroke:#5A6A7E;stroke-width:1;"/></g><g class="link" data-entity-1="Hbv" data-entity-2="Hdm" data-uid="lnk15" id="link_Hbv_Hdm"><polygon fill="#5A6A7E" points="889.8044,100.5657,882.5895,93.8616,885.075,98.9432,879.9935,101.4287,889.8044,100.5657" style="stroke:#5A6A7E;stroke-width:1;"/><path d="M853.3601,88.0629 C865.3811,92.1869 872.3816,94.5885 884.1291,98.6187" fill="none" style="stroke:#5A6A7E;stroke-width:1;"/></g><g class="link" data-entity-1="Hdv" data-entity-2="Hdm" data-uid="lnk16" id="link_Hdv_Hdm"><polygon fill="#5A6A7E" points="889.6003,118.259,880.4781,114.546,884.6028,118.4173,880.7315,122.542,889.6003,118.259" style="stroke:#5A6A7E;stroke-width:1;"/><path d="M708.0948,124.0109 C760.8419,122.3393 833.5867,120.0341 883.6033,118.449" fill="none" style="stroke:#5A6A7E;stroke-width:1;"/></g><g class="link" data-entity-1="Hdm" data-entity-2="Vault" data-uid="lnk17" id="link_Hdm_Vault"><polygon fill="#5A6A7E" points="1022.841,116.7569,1013.841,112.7569,1017.841,116.7569,1013.841,120.7569,1022.841,116.7569" style="stroke:#5A6A7E;stroke-width:1;"/><path d="M986.1031,116.7569 C998.0419,116.7569 1004.8749,116.7569 1016.841,116.7569" fill="none" style="stroke:#5A6A7E;stroke-width:1;"/></g><!--SRC=[RP7FRXGn3CRlUGhJdilI5jgA0nBT1I5K2keWkEp5Ct5cqisVLPpP5LILU8Y-I-yy2az2aftf3X8tE_xP_ZxdsJfWQn4C_l1z1BOKqQ68EXg2nJ7y-VK0LxxL3PhCK631A-tM6D12ZSsg3RvtSkwD3t2eKDMgcH2I5FOcllSkNgCbgD1nHK6h2SCTIh_LhWM5XcbIUHk2tmwZN-4Pda-BWPeajKqoxmH0tb3fdmJ7focxz45I-DhfPkM86Kx4lH26L8Je8UYsYo1r7g2z4s8_wU0AdKnAbcv-ymb-FuBIXZW77wlFrmU030EHl2frHXVJvihteI6mNf9PkkSTszBnWUt_w3b6DBu5BbsyT9rVp-xMmTycvdusF9S98tf8KhrGBwTJRd0BYrI6R_dEUQlSxBRAJU8l4bzF-SkUTJd94ryFV9ruTKhrl_n2MtASpeJ5aXmioMI9pfCbAMJQNYCdjeo46RnRV2_KBXz5YF5oHqTlyar4lakEHtUluKlFNVwXPlSYnahfa1kHFUMu37xAadAHrKygGvPaxgaIsptr5m00]--></g></svg>