<svg xmlns="http://www.w3.org/2000/svg" xmlns:xlink="http://www.w3.org/1999/xlink" contentStyleType="text/css" data-diagram-type="DESCRIPTION" height="627px" preserveAspectRatio="none" style="width:576px;height:627px;background:#FAFBFC;" version="1.1" viewBox="0 0 576 627" width="576px" zoomAndPan="magnify"><title>D7 &#8212; EDW Journey perspective</title><defs/><g><rect fill="#FAFBFC" height="627" style="stroke:none;stroke-width:1;" width="576" x="0" y="0"/><g class="title" data-source-line="2"><text fill="#000000" font-family="sans-serif" font-size="14" font-weight="bold" lengthAdjust="spacing" textLength="214.3252" x="177.5874" y="24.9659">D7 &#8212; EDW Journey perspective</text></g><!--entity Journey--><g class="entity" data-entity="Journey" data-source-line="12" data-uid="ent0002" id="entity_Journey"><rect fill="#033D5D" height="52.6882" rx="2.5" ry="2.5" style="stroke:#181818;stroke-width:1;" width="92.9245" x="199.5" y="52.0679"/><text fill="#FFFFFF" font-family="sans-serif" font-size="12" lengthAdjust="spacing" textLength="72.9245" x="209.5" y="74.896">EDW Journey</text><text fill="#FFFFFF" font-family="sans-serif" font-size="12" lengthAdjust="spacing" textLength="65.0525" x="209.5" y="91.2401">perspective</text></g><!--entity Rdg--><g class="entity" data-entity="Rdg" data-source-line="14" data-uid="ent0003" id="entity_Rdg"><rect fill="#4A5568" height="36.3441" rx="2.5" ry="2.5" style="stroke:#181818;stroke-width:1;" width="166.7611" x="162.5" y="141.0679"/><text fill="#FFFFFF" font-family="sans-serif" font-size="12" lengthAdjust="spacing" textLength="146.7611" x="172.5" y="163.896">Resource definition group</text></g><!--entity Sources--><g class="entity" data-entity="Sources" data-source-line="15" data-uid="ent0004" id="entity_Sources"><rect fill="#FFF6E8" height="52.6882" rx="2.5" ry="2.5" style="stroke:#181818;stroke-width:1;" width="135.9088" x="6" y="213.0679"/><text fill="#000000" font-family="sans-serif" font-size="12" lengthAdjust="spacing" textLength="57.6964" x="16" y="235.896">1. Sources</text><text fill="#000000" font-family="sans-serif" font-size="12" lengthAdjust="spacing" textLength="115.9088" x="16" y="252.2401">.hsm + catalog feeds</text></g><!--entity Controls--><g class="entity" data-entity="Controls" data-source-line="16" data-uid="ent0005" id="entity_Controls"><rect fill="#E6F4F8" height="52.6882" rx="2.5" ry="2.5" style="stroke:#181818;stroke-width:1;" width="144.3449" x="36" y="302.0679"/><text fill="#000000" font-family="sans-serif" font-size="12" lengthAdjust="spacing" textLength="60.8524" x="46" y="324.896">2. Controls</text><text fill="#000000" font-family="sans-serif" font-size="12" lengthAdjust="spacing" textLength="124.3449" x="46" y="341.2401">harvest &#183; gate &#183; quality</text></g><!--entity Dv--><g class="entity" data-entity="Dv" data-source-line="17" data-uid="ent0006" id="entity_Dv"><rect fill="#E8F0FB" height="52.6882" rx="2.5" ry="2.5" style="stroke:#181818;stroke-width:1;" width="118.4007" x="100" y="391.0679"/><text fill="#000000" font-family="sans-serif" font-size="12" lengthAdjust="spacing" textLength="98.4007" x="110" y="413.896">3. Raw Data Vault</text><text fill="#000000" font-family="sans-serif" font-size="12" lengthAdjust="spacing" textLength="24.1082" x="110" y="430.2401">.hdv</text></g><!--entity Bv--><g class="entity" data-entity="Bv" data-source-line="18" data-uid="ent0007" id="entity_Bv"><rect fill="#F3EBFB" height="52.6882" rx="2.5" ry="2.5" style="stroke:#181818;stroke-width:1;" width="114.8367" x="140.5" y="480.0679"/><text fill="#000000" font-family="sans-serif" font-size="12" lengthAdjust="spacing" textLength="94.8367" x="150.5" y="502.896">4. Business Vault</text><text fill="#000000" font-family="sans-serif" font-size="12" lengthAdjust="spacing" textLength="24.1082" x="150.5" y="519.2401">.hbv</text></g><!--entity Dm--><g class="entity" data-entity="Dm" data-source-line="19" data-uid="ent0008" id="entity_Dm"><rect fill="#E7F6ED" height="52.6882" rx="2.5" ry="2.5" style="stroke:#181818;stroke-width:1;" width="103.8086" x="189" y="569.0679"/><text fill="#000000" font-family="sans-serif" font-size="12" lengthAdjust="spacing" textLength="83.8086" x="199" y="591.896">5. Dimensional</text><text fill="#000000" font-family="sans-serif" font-size="12" lengthAdjust="spacing" textLength="29.2322" x="199" y="608.2401">.hdm</text></g><!--entity Orch--><g class="entity" data-entity="Orch" data-source-line="20" data-uid="ent0009" id="entity_Orch"><rect fill="#FFF3DF" height="52.6882" rx="2.5" ry="2.5" style="stroke:#181818;stroke-width:1;" width="111.3447" x="312.5" y="213.0679"/><text fill="#000000" font-family="sans-serif" font-size="12" lengthAdjust="spacing" textLength="91.3447" x="322.5" y="235.896">7. Orchestration</text><text fill="#000000" font-family="sans-serif" font-size="12" lengthAdjust="spacing" textLength="24.1922" x="322.5" y="252.2401">.hwf</text></g><!--entity Out--><g class="entity" data-entity="Out" data-source-line="21" data-uid="ent0010" id="entity_Out"><rect fill="#EDF0F4" height="52.6882" rx="2.5" ry="2.5" style="stroke:#181818;stroke-width:1;" width="128.7568" x="441.5" y="213.0679"/><text fill="#000000" font-family="sans-serif" font-size="12" lengthAdjust="spacing" textLength="59.1964" x="451.5" y="235.896">8. Outputs</text><text fill="#000000" font-family="sans-serif" font-size="12" lengthAdjust="spacing" textLength="108.7568" x="451.5" y="252.2401">reports &#183; .hem &#183; .hlv</text></g><g class="link" data-entity-1="Journey" data-entity-2="Rdg" data-uid="lnk11" id="link_Journey_Rdg"><polygon fill="#5A6A7E" points="246,140.7375,250,131.7375,246,135.7375,242,131.7375,246,140.7375" style="stroke:#5A6A7E;stroke-width:1;"/><path d="M246,105.2718 C246,116.8976 246,124.3306 246,134.7375" fill="none" style="stroke:#5A6A7E;stroke-width:1;"/></g><g class="link" data-entity-1="Rdg" data-entity-2="Sources" data-uid="lnk12" id="link_Rdg_Sources"><polygon fill="#5A6A7E" points="129.8825,213.0634,139.7308,212.9656,134.4311,210.9874,136.4093,205.6877,129.8825,213.0634" style="stroke:#5A6A7E;stroke-width:1;"/><path d="M208.6786,177.1012 C185.6577,187.6079 161.1564,198.7901 135.3409,210.5722" fill="none" style="stroke:#5A6A7E;stroke-width:1;"/></g><g class="link" data-entity-1="Rdg" data-entity-2="Controls" data-uid="lnk13" id="link_Rdg_Controls"><polygon fill="#5A6A7E" points="125.8665,301.8093,134.3317,296.7754,128.7557,297.7286,127.8025,292.1526,125.8665,301.8093" style="stroke:#5A6A7E;stroke-width:1;"/><path d="M228.0667,177.1835 C217.7557,187.3054 204.7557,200.5554 194,213.0679 C168.8807,242.2903 146.1194,273.2041 129.3336,296.9124" fill="none" style="stroke:#5A6A7E;stroke-width:1;"/></g><g class="link" data-entity-1="Rdg" data-entity-2="Dv" data-uid="lnk14" id="link_Rdg_Dv"><polygon fill="#5A6A7E" points="172.694,390.9676,180.3248,384.7409,174.9503,386.5056,173.1856,381.131,172.694,390.9676" style="stroke:#5A6A7E;stroke-width:1;"/><path d="M241.4252,177.0845 C230.3291,218.119 201.948,321.597 189,355.0679 C184.3282,367.1446 180.9035,374.7322 175.4015,385.6132" fill="none" style="stroke:#5A6A7E;stroke-width:1;"/></g><g class="link" data-entity-1="Rdg" data-entity-2="Bv" data-uid="lnk15" id="link_Rdg_Bv"><polygon fill="#5A6A7E" points="212.6622,480.0435,220.3092,473.8368,214.93,475.5874,213.1794,470.2082,212.6622,480.0435" style="stroke:#5A6A7E;stroke-width:1;"/><path d="M247.0492,177.3868 C249.2995,222.2815 252.4889,345.7694 227,444.0679 C223.8,456.4087 220.86,463.9353 215.3836,474.6962" fill="none" style="stroke:#5A6A7E;stroke-width:1;"/></g><g class="link" data-entity-1="Rdg" data-entity-2="Dm" data-uid="lnk16" id="link_Rdg_Dm"><polygon fill="#5A6A7E" points="251.8179,568.882,258.826,561.962,253.6422,564.2267,251.3775,559.043,251.8179,568.882" style="stroke:#5A6A7E;stroke-width:1;"/><path d="M252.6191,177.3781 C263.5063,207.4525 284,271.5085 284,327.5679 C284,327.5679 284,327.5679 284,418.5679 C284,470.2273 277.5502,483.2173 264,533.0679 C260.7409,545.0581 258.2767,552.4009 254.0071,563.2957" fill="none" style="stroke:#5A6A7E;stroke-width:1;"/></g><g class="link" data-entity-1="Rdg" data-entity-2="Orch" data-uid="lnk17" id="link_Rdg_Orch"><polygon fill="#5A6A7E" points="328.1265,212.9116,322.7223,204.6778,323.9217,210.2061,318.3935,211.4055,328.1265,212.9116" style="stroke:#5A6A7E;stroke-width:1;"/><path d="M272.4722,177.1012 C288.7308,187.5628 304.8234,197.9174 323.0808,209.665" fill="none" style="stroke:#5A6A7E;stroke-width:1;"/></g><g class="link" data-entity-1="Rdg" data-entity-2="Out" data-uid="lnk18" id="link_Rdg_Out"><polygon fill="#5A6A7E" points="441.1886,215.7023,433.8771,209.1037,436.4361,214.1486,431.3912,216.7077,441.1886,215.7023" style="stroke:#5A6A7E;stroke-width:1;"/><path d="M309.8976,177.1582 C346.1606,187.1118 392.2983,200.2039 433,213.0679 C435.6881,213.9175 432.7234,212.9349 435.4856,213.8379" fill="none" style="stroke:#5A6A7E;stroke-width:1;"/></g><g class="link" data-entity-1="Sources" data-entity-2="Controls" data-uid="lnk19" id="link_Sources_Controls"><polygon fill="#5A6A7E" points="97.9369,301.8182,98.3865,291.9796,96.1169,297.1612,90.9353,294.8915,97.9369,301.8182" style="stroke:#5A6A7E;stroke-width:1;"/><path d="M84.0172,266.2002 C88.405,277.4277 91.3599,284.9889 95.7529,296.2298" fill="none" style="stroke:#5A6A7E;stroke-width:1;"/></g><g class="link" data-entity-1="Controls" data-entity-2="Dv" data-uid="lnk20" id="link_Controls_Dv"><polygon fill="#5A6A7E" points="143.9053,390.8182,142.8046,381.031,141.3767,386.5047,135.9031,385.0768,143.9053,390.8182" style="stroke:#5A6A7E;stroke-width:1;"/><path d="M123.0258,355.2002 C129.6075,366.4277 134.2815,374.4011 140.871,385.642" fill="none" style="stroke:#5A6A7E;stroke-width:1;"/></g><g class="link" data-entity-1="Dv" data-entity-2="Bv" data-uid="lnk21" id="link_Dv_Bv"><polygon fill="#5A6A7E" points="186.457,479.8182,186.4255,469.9694,184.4117,475.2556,179.1255,473.2418,186.457,479.8182" style="stroke:#5A6A7E;stroke-width:1;"/><path d="M170.4903,444.2002 C175.5234,455.4277 178.9637,463.1023 184.0027,474.3431" fill="none" style="stroke:#5A6A7E;stroke-width:1;"/></g><g class="link" data-entity-1="Bv" data-entity-2="Dm" data-uid="lnk22" id="link_Bv_Dm"><polygon fill="#5A6A7E" points="228.2731,568.8182,227.8712,558.9775,226.0577,564.3358,220.6994,562.5222,228.2731,568.8182" style="stroke:#5A6A7E;stroke-width:1;"/><path d="M210.6688,533.2002 C216.2181,544.4277 220.0588,552.1985 225.6146,563.4393" fill="none" style="stroke:#5A6A7E;stroke-width:1;"/></g><!--SRC=[LL5DZzCm4BtdLmpR8zfek_qKI4Xq0mSE86qHNFOoZSU9rSGEjfDI418_OlyBTtuAluHncgRkoMFxlJVpthneB1OrGeL7qtfmDNdKc7ZbAu9i1Vz-FyExx2jyCAtLT8I6h6iezwgZnEsLRj1Y3JlCzuKrhHOFfZ8M9XBbJkOHGf34jlBlZVOViIROedPRiaf665UYC0Ub2v1OkLZ_hRNcC4WlS8ch-DFoEAWBdlTd0X0wRDKFWkaztpR62hAVIvNlDJa7q-HNabm8Dv6r9nrvkm5qe-V9tMmc5kArf-_-rQ5Kdguq7ianCAVWKMdbbT4GmcXwaKTHm6IEYyLo7Gj4_6aAsrx0FUcqT3MyX1mzLePp81AkbnaGdAoKIrh7_FiK7jYqDHKBb6WxSXx-_e42FONpMukLyiTUvWo42ItbN5xfp59un0Dat1k-X6M5SKJNyxAE6Mjv9tSnOvx2fdMgJtPax4wC3JFaZ7RNZ4KAcQf9Emu9gxv1VMfGSuCLMnCnV9N29vkNRCXYo3KG3h8dXFS-ZPcGCMNDbDOthUSmB3N6UXT2I4kgJsTrcez1t56mfNcId3TzU_icB2m9ImlraFfuFyStFcJTM6ukPLQFPHZpScbzSbxabTouba6JunuaDzsW-1y0]--></g></svg>